HIERARCHY
ROOT joint_Root
{
	OFFSET 0.0 0.0 0.0
	CHANNELS 6 Xposition Yposition Zposition Zrotation Xrotation Yrotation 
	JOINT Hips
	{
		OFFSET -17.1583 93.1646 452.98
		CHANNELS 6 Xposition Yposition Zposition Zrotation Xrotation Yrotation 
		JOINT Spine
		{
			OFFSET 15.7357 0.0 0.0
			CHANNELS 6 Xposition Yposition Zposition Zrotation Xrotation Yrotation 
			JOINT Chest
			{
				OFFSET 8.98455 -0.406207 0.0
				CHANNELS 6 Xposition Yposition Zposition Zrotation Xrotation Yrotation 
				JOINT Neck
				{
					OFFSET 16.3773 0.0 0.0
					CHANNELS 6 Xposition Yposition Zposition Zrotation Xrotation Yrotation 
					JOINT Head
					{
						OFFSET 6.45672 0.0 0.0
						CHANNELS 6 Xposition Yposition Zposition Zrotation Xrotation Yrotation 
						End Site
						{
							OFFSET 0.0 0.0 0.0
						}
					}
				}
				JOINT Shoulder_L
				{
					OFFSET 12.9942 -0.242716 4.98039
					CHANNELS 6 Xposition Yposition Zposition Zrotation Xrotation Yrotation 
					JOINT UpperArm_L
					{
						OFFSET 5.34809 0.0 0.0
						CHANNELS 6 Xposition Yposition Zposition Zrotation Xrotation Yrotation 
						JOINT LowerArm_L
						{
							OFFSET 24.3286 1.87007e-05 0.0
							CHANNELS 6 Xposition Yposition Zposition Zrotation Xrotation Yrotation 
							JOINT Hand_L
							{
								OFFSET 22.2916 0.0 0.0
								CHANNELS 6 Xposition Yposition Zposition Zrotation Xrotation Yrotation 
								End Site
								{
									OFFSET 0.0 0.0 0.0
								}
							}
						}
					}
				}
				JOINT Shoulder_R
				{
					OFFSET 12.9945 -0.242716 -4.98039
					CHANNELS 6 Xposition Yposition Zposition Zrotation Xrotation Yrotation 
					JOINT UpperArm_R
					{
						OFFSET -5.34813 0.0 0.0
						CHANNELS 6 Xposition Yposition Zposition Zrotation Xrotation Yrotation 
						JOINT LowerArm_R
						{
							OFFSET -24.3289 0.000322201 0.0
							CHANNELS 6 Xposition Yposition Zposition Zrotation Xrotation Yrotation 
							JOINT Hand_R
							{
								OFFSET -22.2915 -0.000108084 0.0
								CHANNELS 6 Xposition Yposition Zposition Zrotation Xrotation Yrotation 
								End Site
								{
									OFFSET 0.0 0.0 0.0
								}
							}
						}
					}
				}
			}
		}
		JOINT UpperLeg_L
		{
			OFFSET -2.19248 -6.46944 0.0
			CHANNELS 6 Xposition Yposition Zposition Zrotation Xrotation Yrotation 
			JOINT LowerLeg_L
			{
				OFFSET 39.0811 0.0 -1.23785e-05
				CHANNELS 6 Xposition Yposition Zposition Zrotation Xrotation Yrotation 
				JOINT Foot_L
				{
					OFFSET 40.9854 0.0 -1.26872e-05
					CHANNELS 6 Xposition Yposition Zposition Zrotation Xrotation Yrotation 
					JOINT Toes_L
					{
						OFFSET 11.7543 0.0 0.0
						CHANNELS 6 Xposition Yposition Zposition Zrotation Xrotation Yrotation 
						End Site
						{
							OFFSET 0.0 0.0 0.0
						}
					}
				}
			}
		}
		JOINT UpperLeg_R
		{
			OFFSET -2.19251 6.46944 0.0
			CHANNELS 6 Xposition Yposition Zposition Zrotation Xrotation Yrotation 
			JOINT LowerLeg_R
			{
				OFFSET -39.0811 -0.00228153 -0.0401928
				CHANNELS 6 Xposition Yposition Zposition Zrotation Xrotation Yrotation 
				JOINT Foot_R
				{
					OFFSET -40.9854 0.0 0.0
					CHANNELS 6 Xposition Yposition Zposition Zrotation Xrotation Yrotation 
					JOINT Toes_R
					{
						OFFSET -11.7543 0.0 0.0
						CHANNELS 6 Xposition Yposition Zposition Zrotation Xrotation Yrotation 
						End Site
						{
							OFFSET 0.0 0.0 0.0
						}
					}
				}
			}
		}
	}
}
MOTION
Frames:	7
Frame Time:	0.0333333
0.000000 0.000000 0.000000 0.000000 0.000000 -0.000000 0.156704 83.284400 432.496000 -89.376300 3.688470 163.831000 15.735700 0.000005 -0.000001 64.437600 82.445900 -64.288500 8.984550 -0.406207 -0.000000 5.901460 -6.504640 0.633938 16.377300 -0.000001 -0.000001 -8.231390 6.093450 -1.639890 6.456720 -0.000001 -0.000000 -2.758560 10.102200 -0.013071 12.994200 -0.242716 4.980390 -92.562000 9.916580 -75.435500 5.348090 -0.000007 -0.000001 -75.010500 -27.562900 -13.192100 24.328600 0.000019 0.000005 62.426400 10.328000 -84.647500 22.291600 -0.000001 0.000005 38.605400 4.019450 23.950800 12.994500 -0.242716 -4.980390 89.051700 3.357470 -74.217100 -5.348130 -0.000001 -0.000004 -67.267400 -4.103860 10.841200 -24.328900 0.000322 -0.000009 1.434500 6.678010 -12.157700 -22.291500 -0.000108 -0.000004 48.997000 5.307780 -0.147575 -2.192480 -6.469440 -0.000000 174.225000 -8.138220 -26.767500 39.081100 -0.000007 -0.000012 0.667408 -0.533316 51.373600 40.985400 -0.000006 -0.000013 8.667630 12.599900 -94.001900 11.754300 -0.000000 0.000003 0.002395 0.099992 -12.521800 -2.192510 6.469440 -0.000001 -178.870000 -2.878160 126.876000 -39.081100 -0.002282 -0.040193 -0.305717 -0.025300 94.664200 -40.985400 0.000008 0.000006 4.491980 -12.234400 -58.740400 -11.754300 -0.000006 -0.000006 0.001677 0.131712 -11.232000
0.000000 0.000000 0.000000 0.000000 0.000000 -0.000000 0.982502 85.782200 425.416000 -85.932200 4.079700 162.275000 15.735700 0.000005 -0.000001 58.286200 82.705000 -56.885900 8.984550 -0.406207 -0.000000 4.775830 -7.692030 3.121990 16.377300 -0.000001 -0.000001 -7.581830 7.214740 -2.651830 6.456720 -0.000001 -0.000000 -2.769710 11.679300 -1.225560 12.994200 -0.242716 4.980390 -92.361600 9.015810 -75.255400 5.348090 -0.000007 -0.000001 -74.746500 -28.694300 -16.051800 24.328600 0.000019 0.000005 65.211000 2.133460 -89.014100 22.291600 -0.000001 0.000005 38.736100 3.979650 24.512800 12.994500 -0.242716 -4.980390 89.249600 2.537680 -73.521900 -5.348130 -0.000001 -0.000004 -62.817700 -8.636180 16.468600 -24.328900 0.000322 -0.000009 2.432730 9.266850 -14.784600 -22.291500 -0.000108 -0.000004 49.177900 5.317190 -0.415336 -2.192480 -6.469440 -0.000000 179.086000 -9.264370 -17.570900 39.081100 -0.000007 -0.000012 0.047007 -0.057764 39.136600 40.985400 -0.000006 -0.000013 2.981520 15.553000 -87.172800 11.754300 -0.000000 0.000003 0.001778 0.039054 -14.992500 -2.192510 6.469440 -0.000001 -175.732000 -8.010050 121.245000 -39.081100 -0.002282 -0.040193 -0.300043 0.012488 87.626900 -40.985400 0.000008 0.000006 3.149940 -15.599600 -65.403700 -11.754300 -0.000006 -0.000006 0.001149 0.145351 -10.678700
0.000000 0.000000 0.000000 0.000000 0.000000 -0.000000 1.817860 88.758200 417.897000 -81.887800 5.099850 160.054000 15.735700 0.000005 -0.000001 53.370800 83.393200 -50.601000 8.984550 -0.406207 -0.000000 3.063700 -7.989490 5.754920 16.377300 -0.000001 -0.000001 -6.497250 8.161580 -3.400920 6.456720 -0.000001 -0.000000 -2.535170 12.948400 -2.690930 12.994200 -0.242716 4.980390 -92.040500 7.674530 -75.062000 5.348090 -0.000007 -0.000001 -74.171600 -29.269100 -16.566400 24.328600 0.000019 0.000005 66.559700 -3.221000 -91.395100 22.291600 -0.000001 0.000005 40.728500 3.926020 25.265600 12.994500 -0.242716 -4.980390 89.716700 0.969625 -73.716700 -5.348130 -0.000001 -0.000004 -60.311800 -8.081300 20.323300 -24.328900 0.000322 -0.000009 2.737010 10.217600 -15.088400 -22.291500 -0.000108 -0.000004 50.923100 5.303650 -0.031757 -2.192480 -6.469440 -0.000000 -176.796000 -10.444400 -9.316260 39.081100 -0.000007 -0.000012 0.036155 -0.072863 26.390700 40.985400 -0.000006 -0.000013 0.542932 14.246900 -74.040400 11.754300 -0.000000 0.000003 -0.016787 -0.148806 -22.651100 -2.192510 6.469440 -0.000001 -172.966000 -13.250000 119.551000 -39.081100 -0.002282 -0.040193 -0.205673 0.059739 74.028300 -40.985400 0.000008 0.000006 1.281760 -17.935700 -70.337500 -11.754300 -0.000006 -0.000006 0.000758 0.153748 -10.337900
0.000000 0.000000 0.000000 0.000000 0.000000 -0.000000 2.308500 91.475700 410.354000 -80.089200 5.237340 157.890000 15.735700 0.000005 -0.000001 45.086200 84.156900 -41.635100 8.984550 -0.406207 -0.000000 0.787057 -8.458160 6.965290 16.377300 -0.000001 -0.000001 -5.393130 8.531880 -3.833500 6.456720 -0.000001 -0.000000 -2.167430 13.751400 -3.300110 12.994200 -0.242716 4.980390 -91.717300 6.452800 -75.062700 5.348090 -0.000007 -0.000001 -73.467100 -28.068300 -15.945500 24.328600 0.000019 0.000005 65.756600 -6.209870 -92.789200 22.291600 -0.000001 0.000005 41.704300 3.875130 25.973000 12.994500 -0.242716 -4.980390 90.120500 -0.413369 -73.742500 -5.348130 -0.000001 -0.000004 -57.897100 -10.352600 23.886200 -24.328900 0.000322 -0.000009 2.137470 7.997030 -15.024800 -22.291500 -0.000108 -0.000004 52.590200 5.291760 0.302709 -2.192480 -6.469440 -0.000000 -175.737000 -10.913400 -5.105220 39.081100 -0.000007 -0.000012 0.009137 -0.028147 17.985300 40.985400 -0.000006 -0.000013 1.109380 11.240000 -55.007800 11.754300 -0.000000 0.000003 -0.098316 -0.440373 -34.948500 -2.192510 6.469440 -0.000001 -172.364000 -15.361100 121.226000 -39.081100 -0.002282 -0.040193 -0.096258 0.066790 56.123100 -40.985400 0.000008 0.000006 -0.393027 -16.654800 -73.124700 -11.754300 -0.000006 -0.000006 0.000182 0.164539 -9.899850
0.000000 0.000000 0.000000 0.000000 0.000000 -0.000000 2.266010 93.101900 402.307000 -81.781400 5.476930 158.395000 15.735700 0.000005 -0.000001 39.812900 84.377400 -36.896600 8.984550 -0.406207 -0.000000 -0.328683 -8.841910 5.813080 16.377300 -0.000001 -0.000001 -4.625090 8.567400 -4.336520 6.456720 -0.000001 -0.000000 -2.059580 13.897100 -3.082770 12.994200 -0.242716 4.980390 -91.578300 5.881200 -74.949000 5.348090 -0.000007 -0.000001 -73.161000 -25.117100 -15.243600 24.328600 0.000019 0.000005 61.682400 -6.938500 -93.724300 22.291600 -0.000001 0.000005 40.557000 3.894040 25.710200 12.994500 -0.242716 -4.980390 90.357600 -1.221070 -73.675100 -5.348130 -0.000001 -0.000004 -55.514900 -13.976200 27.540600 -24.328900 0.000322 -0.000009 2.040090 7.182390 -15.910400 -22.291500 -0.000108 -0.000004 53.543000 5.282530 0.556955 -2.192480 -6.469440 -0.000000 -178.020000 -10.183400 -1.216970 39.081100 -0.000007 -0.000012 -0.007565 0.029990 14.156100 40.985400 -0.000006 -0.000013 1.958090 9.772600 -37.608200 11.754300 -0.000000 0.000003 -0.074320 -0.375760 -32.153900 -2.192510 6.469440 -0.000001 -174.114000 -14.360600 127.454000 -39.081100 -0.002282 -0.040193 -0.023649 0.034879 37.675100 -40.985400 0.000008 0.000006 -3.273000 -11.890600 -75.147400 -11.754300 -0.000006 -0.000006 -0.000309 0.172714 -9.567870
0.000000 0.000000 0.000000 0.000000 0.000000 -0.000000 2.019140 93.355100 393.724000 -84.364000 6.099150 160.949000 15.735700 0.000005 -0.000001 41.128600 84.375400 -39.176500 8.984550 -0.406207 -0.000000 -0.211282 -8.607230 3.891860 16.377300 -0.000001 -0.000001 -4.350250 8.517170 -4.512220 6.456720 -0.000001 -0.000000 -1.594890 13.689300 -2.781310 12.994200 -0.242716 4.980390 -91.541100 5.674010 -74.777200 5.348090 -0.000007 -0.000001 -73.354600 -21.444800 -13.863300 24.328600 0.000019 0.000005 58.195900 -5.868910 -93.627600 22.291600 -0.000001 0.000005 38.998300 3.945760 24.991500 12.994500 -0.242716 -4.980390 90.369600 -1.263050 -73.687900 -5.348130 -0.000001 -0.000004 -54.380500 -15.036000 29.683000 -24.328900 0.000322 -0.000009 1.704110 6.107600 -15.629000 -22.291500 -0.000108 -0.000004 54.763600 5.286960 0.435048 -2.192480 -6.469440 -0.000000 179.297000 -8.555170 1.946210 39.081100 -0.000007 -0.000012 0.004264 -0.014323 16.578000 40.985400 -0.000006 -0.000013 -2.351520 6.991270 -26.231600 11.754300 -0.000000 0.000003 0.000607 0.010939 -16.133300 -2.192510 6.469440 -0.000001 -175.795000 -12.700600 135.701000 -39.081100 -0.002282 -0.040193 0.003712 -0.000923 23.245200 -40.985400 0.000008 0.000006 -4.581180 -8.563070 -76.636600 -11.754300 -0.000006 -0.000006 -0.000300 0.172568 -9.573790
0.000000 0.000000 0.000000 0.000000 0.000000 -0.000000 1.935960 92.637600 385.248000 -85.898100 5.602520 162.687000 15.735700 0.000005 -0.000001 41.216700 84.388700 -39.685500 8.984550 -0.406207 -0.000000 -0.249855 -8.547010 3.046360 16.377300 -0.000001 -0.000001 -4.478420 8.573650 -4.598830 6.456720 -0.000001 -0.000000 -0.920811 13.249900 -2.581270 12.994200 -0.242716 4.980390 -91.560400 5.701590 -74.666300 5.348090 -0.000007 -0.000001 -73.472100 -17.415100 -10.730100 24.328600 0.000019 0.000005 55.706700 -2.985910 -92.033700 22.291600 -0.000001 0.000005 39.872900 3.985920 24.426800 12.994500 -0.242716 -4.980390 90.159600 -0.560374 -74.105400 -5.348130 -0.000001 -0.000004 -54.704600 -14.563200 29.210000 -24.328900 0.000322 -0.000009 0.588225 2.463210 -13.439000 -22.291500 -0.000108 -0.000004 56.652900 5.277590 0.692665 -2.192480 -6.469440 -0.000000 177.721000 -5.962680 2.117800 39.081100 -0.000007 -0.000012 0.000399 -0.000891 24.120400 40.985400 -0.000006 -0.000013 -6.156580 7.818510 -22.228100 11.754300 -0.000000 0.000003 0.000931 0.017503 -15.866900 -2.192510 6.469440 -0.000001 -176.238000 -10.934800 141.056000 -39.081100 -0.002282 -0.040193 0.007994 -0.015233 17.035300 -40.985400 0.000008 0.000006 -4.319900 -8.609070 -77.777000 -11.754300 -0.000006 -0.000006 -0.000449 0.174914 -9.478480
